<!--?xml version="1.0" standalone="no"?-->
              <svg id="sw-js-blob-svg" viewBox="0 0 100 100" xmlns="http://www.w3.org/2000/svg" version="1.1">
                    <defs> 
                        <linearGradient id="sw-gradient" x1="0" x2="1" y1="1" y2="0">
                            <stop id="stop1" stop-color="rgba(117, 78, 249, 1)" offset="0%"></stop>
                            <stop id="stop2" stop-color="rgba(31, 183.547, 251, 1)" offset="100%"></stop>
                        </linearGradient>
                    </defs>
                <path fill="url(#sw-gradient)" d="M17.6,-18.2C24.9,-14.8,34.4,-11.3,37.1,-5.1C39.9,1,36,9.8,30.3,15.4C24.5,20.9,17,23.4,8.8,28C0.6,32.7,-8.2,39.7,-16,39C-23.8,38.3,-30.5,29.9,-34.8,20.9C-39.1,11.9,-40.9,2.2,-39.2,-6.8C-37.4,-15.7,-32.1,-23.9,-25,-27.3C-17.9,-30.7,-9,-29.4,-1.9,-27.1C5.1,-24.9,10.3,-21.6,17.6,-18.2Z" width="100%" height="100%" transform="translate(50 50)" style="transition: all 0.3s ease 0s;" stroke-width="0" stroke="url(#sw-gradient)"></path>
              </svg>