<!--?xml version="1.0" standalone="no"?-->
              <svg id="sw-js-blob-svg" viewBox="0 0 100 100" xmlns="http://www.w3.org/2000/svg" version="1.1">
                    <defs> 
                        <linearGradient id="sw-gradient" x1="0" x2="1" y1="1" y2="0">
                            <stop id="stop1" stop-color="rgba(117, 78, 249, 1)" offset="0%"></stop>
                            <stop id="stop2" stop-color="rgba(31, 183.547, 251, 1)" offset="100%"></stop>
                        </linearGradient>
                    </defs>
                <path fill="url(#sw-gradient)" d="M27.7,-32.4C35.4,-26.7,40.6,-17.4,39.6,-9C38.7,-0.7,31.6,6.7,25.2,11.6C18.8,16.4,13.2,18.7,7.3,21.5C1.3,24.3,-5,27.7,-13.5,28.4C-21.9,29,-32.5,26.9,-38.4,20.4C-44.4,13.8,-45.7,2.7,-41.7,-5.1C-37.7,-13,-28.3,-17.8,-20.4,-23.5C-12.6,-29.2,-6.3,-36,1.9,-38.2C10.1,-40.4,20.1,-38.2,27.7,-32.4Z" width="100%" height="100%" transform="translate(50 50)" style="transition: all 0.3s ease 0s;" stroke-width="0" stroke="url(#sw-gradient)"></path>
              </svg>